<svg width="902" height="902" viewBox="0 0 902 902" fill="none" xmlns="http://www.w3.org/2000/svg">
<path d="M115.264 752.325C94.5819 734.389 74.5962 716.98 51.9468 697.25C77.3266 675.489 100.218 653.953 125.041 634.938C196.535 580.17 275.841 541.411 364.657 523.996C465.425 504.238 562.698 516.761 656.287 558.356C731.204 591.652 796.105 639.558 856.945 697.581C842.137 711.082 828.35 724.832 813.364 737.119C725.243 809.374 626.692 859.373 512.689 875.115C400.449 890.615 296.096 866.21 199.117 809.42C170.254 792.518 143.618 771.814 115.264 752.325ZM536.886 578.482C536.886 578.482 536.59 578.2 534.215 577.353C530.715 573.995 527.634 569.997 523.645 567.386C501.216 552.704 469.312 558.131 451.651 579.31C433.388 601.211 434.669 633.35 454.632 654.066C473.686 673.838 505.943 676.678 527.324 660.227C548.477 643.951 554.247 622.498 549.831 596.952C561.553 593.091 573.275 589.23 586.339 584.927C581.041 575.629 577.121 568.748 572.618 560.844C560.387 567.622 549.381 573.72 538.261 579.985L536.886 578.482ZM697.562 779.433C738.402 756.757 776.256 729.953 812.446 697.315C791.03 680.208 770.625 663.91 749.097 646.714C748.132 650.578 747.656 651.67 747.612 652.78C746.467 681.966 739.218 709.442 724.663 734.868C722.9 737.947 722.082 744.626 717.264 735.443C729.786 705.14 731.753 673.683 727.256 641.595C726.704 637.66 725.924 632.263 723.252 630.384C712.453 622.787 700.872 616.301 687.465 608.114C694.969 652.459 694.048 692.757 672.551 730.348C671.264 728.089 670.733 725.763 671.343 723.79C681.925 689.533 680.02 655.448 670.372 621.386C662.804 594.669 645.006 580.053 616.582 577.569C642.183 661.65 624.061 734.013 553.162 787.343C495.664 830.594 429.992 836.249 366.628 802.395C279.05 755.603 253.184 679.129 275.547 582.909C265.396 587.495 256.13 590.833 247.809 595.767C243.011 598.613 238.317 603.384 236.015 608.406C221.001 641.157 221.655 675.963 223.945 710.857C224.201 714.756 225.291 718.599 225.994 722.468C224.726 722.651 223.458 722.833 222.191 723.015C208.016 688.759 206.525 652.947 212.936 613.385C199.831 621.459 189.602 627.277 179.99 633.98C177.145 635.963 174.925 640.248 174.311 643.805C168.614 676.778 173.424 708.678 184.202 741.469C181.812 740.279 178.347 739.709 177.236 737.782C173.999 732.17 170.982 726.226 169.171 720.035C162.83 698.358 157.032 676.523 150.596 653.186C133.735 667.083 116.124 681.598 97.8351 696.672C103.599 701.905 107.48 706.144 112.037 709.451C143.348 732.174 174.801 754.702 207.161 778.633C278.307 821.459 354.857 846.819 438.307 848.572C530.678 850.513 616.077 825.503 697.562 779.433ZM337.533 617.148C336.854 614.141 337.086 609.294 335.346 608.433C326.003 603.811 316.169 600.181 304.29 595.299C301.612 610.941 299.21 624.97 296.653 639.903C302.221 640.306 305.371 640.699 308.526 640.735C331.928 640.999 331.929 640.976 337.533 617.148ZM337.337 687.192C335.962 677.087 334.731 666.957 333.019 656.91C332.819 655.737 329.982 654.255 328.334 654.211C318.729 653.955 309.114 654.086 296.834 654.086C300.939 670.136 304.535 684.2 308.313 698.975C319.094 694.643 327.342 691.329 337.337 687.192ZM581.296 640.746C586.09 640.746 590.885 640.746 598.216 640.746C595.6 625.401 593.274 611.751 590.72 596.766C578.64 601.934 569.03 606.046 559.28 610.218C561.548 620.591 563.617 630.056 565.955 640.749C570.308 640.749 574.691 640.749 581.296 640.746ZM562.052 672.906C560.927 677.089 559.802 681.272 558.547 685.939C568.328 689.885 576.885 693.338 587.33 697.552C590.864 682.442 594.018 668.954 597.341 654.745C585.019 654.745 575.392 654.745 565.604 654.745C564.491 660.596 563.503 665.793 562.052 672.906ZM318.105 716.993C325.083 726.709 332.06 736.425 339.68 747.036C348.409 738.341 355.493 731.284 362.448 724.355C356.106 715.341 350.383 707.208 344.621 699.017C336.137 702.439 328.491 705.159 321.239 708.689C319.264 709.65 318.477 713.051 318.105 716.993ZM393.98 759.622C393.704 755.568 395.015 749.737 392.848 747.802C386.898 742.487 379.487 738.809 374.418 735.6C366.52 742.738 359.175 749.377 350.466 757.248C362.581 764.742 373.687 771.613 385.976 779.214C389.053 771.752 391.202 766.54 393.98 759.622ZM547.413 707.849C543.298 713.761 539.182 719.673 536.161 724.014C542.553 731.646 548.248 738.446 555.471 747.07C564.705 734.027 572.742 722.674 581.625 710.126C573.651 706.836 567.412 704.927 561.859 701.799C555.209 698.053 551.273 699.9 547.413 707.849ZM506.616 746.69C496.156 752.989 496.771 758.96 510.745 778.583C521.968 771.314 533.244 764.009 544.889 756.466C536.643 748.529 530.061 742.193 523.38 735.762C518.363 739.075 513.287 742.427 506.616 746.69ZM487.234 762.385C484.516 760.85 481.647 757.805 479.109 758.06C471.159 758.857 463.334 760.898 455.626 762.425C455.626 772.301 455.626 781.487 455.626 792.531C469.583 789.744 482.428 787.178 496.167 784.434C492.849 776.2 490.424 770.183 487.234 762.385ZM406.927 764.217C404.401 770.443 401.875 776.668 398.583 784.779C413.401 787.382 426.611 789.703 440.082 792.069C440.082 780.363 440.082 771.204 440.082 762.199C431.697 760.375 424.213 758.116 416.587 757.42C413.802 757.166 410.678 760.626 406.927 764.217ZM334.358 592.972C337.693 594.179 341.027 595.387 344.859 596.774C348.482 590.99 351.799 585.695 355.799 579.31C346.329 576.401 338.619 574.114 330.96 571.663C315.886 566.838 315.705 566.91 311.711 583.627C318.548 586.49 325.577 589.434 334.358 592.972Z" fill="#F8F8F8"/>
<path d="M536.886 578.482C536.886 578.482 536.59 578.2 534.215 577.353C536.968 579.488 538.059 579.997 538.261 579.985L536.886 578.482Z" fill="#F8F8F8"/>
<path d="M314.238 203.567C360.498 140.542 406.271 78.2507 453.083 14.5439C506.079 92.4643 558.218 169.127 611.523 247.502C669.959 175.817 727.701 104.985 787.186 32.0142C787.186 183.707 787.186 332.508 787.186 482.089C558.794 482.089 330.512 482.089 101.866 482.089C101.866 333.243 101.866 185.209 101.866 33.3926C163.928 104.691 223.849 173.528 284.905 243.67C295.018 229.868 304.385 217.084 314.238 203.567ZM757.043 401.844C757.043 308.464 757.043 215.084 757.043 121.704C756.118 121.558 755.192 121.413 754.267 121.268C706.283 180.164 658.299 239.06 609.332 299.162C556.657 221.737 504.8 145.517 452.089 68.0388C396.437 143.82 341.91 218.07 286.872 293.016C235.211 233.658 184.956 175.917 133.012 116.235C133.012 229.976 133.012 340.37 133.012 451.376C341.087 451.376 548.504 451.376 757.048 451.376C757.048 435.228 757.048 419.765 757.043 401.844Z" fill="#F6F6F6"/>
</svg>
